
<svg width="40" height="40" viewBox="0 0 40 40" fill="none" xmlns="http://www.w3.org/2000/svg">
<g clip-path="url(#clip0_2444_7828)">
<path d="M40 0H0V40H40V0Z" fill="black"/>
<path d="M4.62388 7.50761C4.58125 7.47023 4.55137 7.42045 4.53843 7.36523C4.52548 7.31002 4.53012 7.25215 4.5517 7.19971C4.57327 7.14727 4.61071 7.10288 4.65876 7.07277C4.7068 7.04266 4.76306 7.02831 4.81966 7.03175L19.5034 7.26016C24.9935 7.41788 28.5774 9.24516 30.8208 12.3287L35.5195 18.7896C35.5492 18.8302 35.567 18.8782 35.571 18.9284C35.5751 18.9784 35.5651 19.0287 35.5423 19.0735C35.5195 19.1183 35.4847 19.1559 35.4418 19.1821C35.3989 19.2083 35.3495 19.2221 35.2993 19.222H16.8386C15.8725 19.2219 14.9377 18.8788 14.2009 18.2539C14.1745 18.2316 14.1499 18.207 14.1275 18.1805L4.62388 7.50761Z" fill="white"/>
<path d="M4.62388 32.383C4.58125 32.4203 4.55137 32.4702 4.53843 32.5253C4.52548 32.5805 4.53012 32.6384 4.5517 32.6909C4.57327 32.7433 4.61071 32.7877 4.65876 32.8178C4.7068 32.8479 4.76306 32.8623 4.81966 32.8588L19.5034 32.6331C24.9935 32.4727 28.5774 30.6481 30.8208 27.5618L35.5141 21.1037C35.5437 21.063 35.5616 21.0151 35.5656 20.9649C35.5696 20.9148 35.5597 20.8646 35.5369 20.8198C35.5141 20.775 35.4792 20.7374 35.4363 20.7112C35.3934 20.685 35.3441 20.6712 35.2938 20.6713H16.8386C15.8725 20.6714 14.9377 21.0145 14.2009 21.6394C14.1738 21.662 14.1491 21.6875 14.1275 21.7155L4.62388 32.383Z" fill="white"/>
</g>
<defs>
<clipPath id="clip0_2444_7828">
<rect width="40" height="40" rx="8" fill="white"/>
</clipPath>
</defs>
</svg>
